<svg width="62" height="75" viewBox="0 0 62 75" fill="none" xmlns="http://www.w3.org/2000/svg">
<path fill-rule="evenodd" clip-rule="evenodd" d="M36.8514 47.0125C36.7225 47.0125 36.5897 46.9812 36.4686 46.9109C36.0936 46.7 26.4998 41.1609 26.1286 40.9421C25.7575 40.7234 25.6325 40.2429 25.8513 39.8718C30.4997 31.9695 34.3747 22.0128 37.3633 10.2858C38.5156 5.77021 41.1524 2.43421 44.7969 0.903013C48.2422 -0.550087 52.1992 -0.237586 55.6519 1.75457C59.105 3.74677 61.351 7.02017 61.8159 10.7312C62.3081 14.6531 60.7418 18.6062 57.4058 21.8602C48.7417 30.3133 42.0578 38.6452 37.5388 46.6222C37.3942 46.8761 37.1325 47.0167 36.8591 47.0167L36.8514 47.0125Z" fill="white"/>
<path fill-rule="evenodd" clip-rule="evenodd" d="M44.5974 60.0945C44.4646 60.0945 44.3318 60.0594 44.2068 59.989C40.2654 57.7117 16.5268 44.012 10.9258 40.774C10.5508 40.5592 10.4258 40.0826 10.6406 39.7076L12.5039 36.481C13.7461 34.3287 16.5117 33.5865 18.6641 34.8287L45.4881 50.3167C47.6404 51.5589 48.3826 54.3245 47.1365 56.4769L45.2732 59.7035C45.1287 59.9535 44.8669 60.0945 44.5974 60.0945Z" fill="white"/>
<path fill-rule="evenodd" clip-rule="evenodd" d="M46.7614 69.9495C46.6247 69.9495 46.4919 69.9144 46.3708 69.844L1.31176 43.828C0.93676 43.6132 0.811762 43.1366 1.0266 42.7616L2.8899 39.535C3.69068 38.1444 5.1907 37.285 6.804 37.285C7.58916 37.285 8.3665 37.4921 9.0462 37.8866L47.6512 60.1756C48.6903 60.7772 49.4364 61.7498 49.7489 62.9139C50.0614 64.0819 49.9012 65.2928 49.3036 66.3358L47.4403 69.5624C47.3348 69.7421 47.1669 69.871 46.9676 69.9257C46.9012 69.9413 46.8348 69.953 46.7645 69.953L46.7614 69.9495Z" fill="white"/>
<path fill-rule="evenodd" clip-rule="evenodd" d="M39.8674 74.9925C39.7346 74.9925 39.6018 74.9573 39.4768 74.887L0.390771 52.321C0.211081 52.2155 0.0821813 52.0476 0.0274913 51.8484C-0.0271987 51.6491 0.000147343 51.4343 0.105616 51.2546L2.84002 46.5202L43.278 69.8682L40.5436 74.6065C40.3991 74.8565 40.1374 74.9971 39.8678 74.9971L39.8674 74.9925Z" fill="white"/>
</svg>
