<svg width="91" height="98" viewBox="0 0 91 98" fill="none" xmlns="http://www.w3.org/2000/svg">
<path d="M88.1498 0.0422424H76.774C75.77 0.0422424 74.8794 0.69902 74.5556 1.68417L70.9445 12.3104H44.169L47.3185 3.27562C47.5776 2.52622 47.4642 1.69262 47.0189 1.04419C46.5817 0.387413 45.8692 8.00542e-05 45.1 8.00542e-05H33.6354C32.6314 -0.0083417 31.7327 0.648429 31.4008 1.63358L0.123314 93.8094C-0.119589 94.5504 0.00186416 95.3756 0.439073 96.0154C0.876294 96.6554 1.5888 97.0343 2.34178 97.0427H13.7175C14.7215 97.0427 15.6121 96.3859 15.936 95.4008L19.539 84.7745H46.3228L43.1733 93.8093C42.9142 94.5587 43.0275 95.3923 43.4728 96.0407C43.91 96.6975 44.6226 97.0848 45.3917 97.0848H56.8564C57.8604 97.0933 58.7591 96.4365 59.091 95.4514L90.3684 3.27549C90.6113 2.53452 90.4899 1.70935 90.0527 1.0695C89.6155 0.429575 88.9028 0.0506491 88.1498 0.0422424ZM68.3374 19.9811L63.6091 33.908H36.8336L41.5783 19.9811H68.3374ZM34.2183 41.5367H61.002L56.2737 55.4635H29.4899L34.2183 41.5367ZM22.1544 77.1033L26.8827 63.1765H53.6581L48.9135 77.1033H22.1544Z" fill="black"/>
</svg>
