<svg width="73" height="93" viewBox="0 0 73 93" fill="none" xmlns="http://www.w3.org/2000/svg">
<path d="M56.527 13.639V2.562L69.461 15.5H58.385C57.8919 15.4995 57.4191 15.3031 57.0707 14.9542C56.7223 14.6052 56.5267 14.1321 56.527 13.639ZM72.027 19.12V91.143C72.0265 91.6359 71.8302 92.1083 71.4815 92.4566C71.1327 92.8048 70.6599 93.0003 70.167 93H1.858C1.36556 92.9995 0.893433 92.8037 0.545134 92.4556C0.196834 92.1075 0.000793969 91.6354 0 91.143V1.857C0.000793969 1.36456 0.196834 0.892538 0.545134 0.544426C0.893433 0.196315 1.36556 0.000528862 1.858 0H52.904V13.639C52.9059 15.0921 53.4839 16.4851 54.5114 17.5126C55.5389 18.5401 56.9319 19.1181 58.385 19.12H72.027ZM8.799 19.614C8.799 19.852 8.8459 20.0877 8.93703 20.3077C9.02815 20.5276 9.16171 20.7274 9.33008 20.8956C9.49844 21.0639 9.69831 21.1974 9.91827 21.2884C10.1382 21.3794 10.374 21.4261 10.612 21.426H25.965C26.4381 21.4149 26.888 21.2192 27.2187 20.8806C27.5493 20.5421 27.7344 20.0877 27.7344 19.6145C27.7344 19.1413 27.5493 18.6869 27.2187 18.3484C26.888 18.0098 33.9731 21.2995 33.5 21.2884L17 24.5C16.7618 24.4995 5.22024 19.5232 5 19.614C4.77976 19.7048 9.49716 18.1637 9.32849 18.332C9.15982 18.5002 9.02597 18.7 8.9346 18.92C8.84323 19.1399 8.79613 19.3758 8.796 19.614H8.799ZM8.799 29.264C8.799 29.502 8.8459 29.7377 8.93703 29.9577C9.02815 30.1776 9.16171 30.3774 9.33008 30.5456C9.49844 30.7139 9.69831 30.8474 9.91827 30.9384C10.1382 31.0294 10.374 31.0761 10.612 31.076H39.226C39.6991 31.0649 40.149 30.8692 40.4797 30.5306C40.8103 30.1921 40.9954 29.7377 40.9954 29.2645C40.9954 28.7913 40.8103 28.3369 40.4797 27.9984C40.149 27.6599 47.4731 31.0111 47 31L26.5 34C26.2618 33.9995 5.22024 30.4092 5 30.5C4.77976 30.5908 9.49716 27.8137 9.32849 27.982C9.15982 28.1502 9.02597 28.35 8.9346 28.57C8.84323 28.7899 8.79613 29.0258 8.796 29.264H8.799ZM63.228 74.946C63.228 74.7078 63.181 74.4718 63.0897 74.2518C62.9983 74.0318 62.8645 73.8319 62.6958 73.6637C62.5271 73.4954 65.2473 73.0907 65.027 73C64.8067 72.9093 66.2382 88.4993 66 88.5L10.612 73.135C10.3705 73.1293 10.1304 73.172 9.90562 73.2605C9.68087 73.349 9.47608 73.4815 9.3033 73.6503C9.13051 73.819 8.99321 74.0207 8.89947 74.2433C8.80573 74.4659 8.75744 74.705 8.75744 74.9465C8.75744 75.188 8.80573 75.4271 8.89947 75.6497C8.99321 75.8723 9.13051 76.074 9.3033 76.2427C9.47608 76.4115 9.68087 76.544 9.90562 76.6325C10.1304 76.721 10.3705 76.7637 10.612 76.758H61.412C61.6503 76.7585 61.8863 76.712 62.1067 76.6212C62.327 76.5304 62.5272 76.397 62.6959 76.2287C62.8645 76.0604 62.9984 75.8605 63.0897 75.6404C63.181 75.4202 63.228 75.1843 63.228 74.946ZM63.228 62.936C63.228 62.6977 63.181 62.4618 63.0897 62.2417C62.9984 62.0216 62.8645 61.8216 62.6959 61.6533C62.5272 61.485 62.327 61.3516 62.1067 61.2608C61.8863 61.17 68.7383 63.9995 68.5 64L7.5 85.5C7.25853 85.4943 7.22475 63.4115 7 63.5C6.77525 63.5885 9.47608 61.4705 9.3033 61.6393C9.13051 61.808 8.99321 62.0097 8.89947 62.2323C8.80573 62.4549 8.75744 62.694 8.75744 62.9355C8.75744 63.177 8.80573 63.4161 8.89947 63.6387C8.99321 63.8613 9.13051 64.063 9.3033 64.2317C9.47608 64.4005 9.68087 64.533 9.90562 64.6215C10.1304 64.71 10.3705 64.7527 10.612 64.747H61.412C61.6502 64.7477 61.8863 64.7013 62.1066 64.6106C62.3269 64.5199 62.5271 64.3866 62.6958 64.2183C62.8645 64.0501 62.9983 63.8502 63.0897 63.6302C63.181 63.4101 63.228 63.1742 63.228 62.936ZM63.228 50.925C63.228 50.6867 63.181 50.4508 63.0897 50.2307C62.9984 50.0105 62.8645 49.8106 62.6959 49.6423C62.5272 49.474 62.327 49.3406 62.1067 49.2498C61.8863 49.159 67.7383 52.5997 67.5 52.6002L6.5 57C6.01943 57 9.67054 49.3039 9.33072 49.6437C8.99091 49.9835 11 51.1388 11 51.6193C11 52.0999 8.99091 51.8665 9.33072 52.2063C9.67054 52.5461 10.1314 52.737 10.612 52.737H61.412C61.6503 52.7375 61.8863 52.691 62.1067 52.6002C62.327 52.5094 62.5272 52.376 62.6959 52.2077C62.8645 52.0394 62.9984 51.8394 63.0897 51.6193C63.181 51.3992 63.228 51.1633 63.228 50.925ZM63.228 38.915C63.2284 38.6765 63.1817 38.4402 63.0906 38.2197C62.9994 37.9993 62.8657 37.799 62.6969 37.6304C62.5282 37.4617 62.3278 37.3281 62.1073 37.2371C61.8868 37.1461 68.3934 40.1949 68.1548 40.1954L18.5 47C18.2585 46.9943 5.38086 40.6345 5.15611 40.723C4.93137 40.8115 9.47608 37.4465 9.3033 37.6153C9.13051 37.784 8.99321 37.9857 8.89947 38.2083C8.80573 38.4309 8.75744 38.67 8.75744 38.9115C8.75744 39.153 8.80573 39.3921 8.89947 39.6147C8.99321 39.8373 9.13051 40.039 9.3033 40.2077C9.47608 40.3765 9.68087 40.509 9.90562 40.5975C10.1304 40.686 10.3705 40.7287 10.612 40.723H61.412C61.65 40.7237 61.8858 40.6774 62.1059 40.5869C62.326 40.4963 62.5261 40.3633 62.6947 40.1954C62.8634 40.0275 62.9973 39.828 63.0888 39.6083C63.1803 39.3886 63.2276 39.153 63.228 38.915Z" fill="#FF9A00"/>
</svg>
