<svg width="365" height="119" viewBox="0 0 365 119" fill="none" xmlns="http://www.w3.org/2000/svg">
<ellipse cx="57" cy="99" rx="42" ry="11" fill="black"/>
<path d="M116.15 6.04224H104.774C103.77 6.04224 102.879 6.69902 102.556 7.68417L98.9445 18.3104H72.169L75.3185 9.27562C75.5776 8.52622 75.4642 7.69262 75.0189 7.04419C74.5817 6.38741 73.8692 6.00008 73.1 6.00008H61.6354C60.6314 5.99166 59.7327 6.64843 59.4008 7.63358L28.1233 99.8094C27.8804 100.55 28.0019 101.376 28.4391 102.015C28.8763 102.655 29.5888 103.034 30.3418 103.043H41.7175C42.7215 103.043 43.6121 102.386 43.936 101.401L47.539 90.7745H74.3228L71.1733 99.8093C70.9142 100.559 71.0275 101.392 71.4728 102.041C71.91 102.698 72.6226 103.085 73.3917 103.085H84.8564C85.8604 103.093 86.7591 102.437 87.091 101.451L118.368 9.27549C118.611 8.53452 118.49 7.70935 118.053 7.0695C117.615 6.42958 116.903 6.05065 116.15 6.04224ZM96.3374 25.9811L91.6091 39.908H64.8336L69.5783 25.9811H96.3374ZM62.2183 47.5367H89.002L84.2737 61.4635H57.4899L62.2183 47.5367ZM50.1544 83.1033L54.8827 69.1765H81.6581L76.9135 83.1033H50.1544Z" fill="#00A2FF"/>
<path d="M133.393 30.0737C133.393 27.3415 134.003 24.9011 135.223 22.7524C136.47 20.5773 138.154 18.8928 140.276 17.6992C142.425 16.4789 144.825 15.8688 147.478 15.8688C150.582 15.8688 153.301 16.6646 155.635 18.2562C157.969 19.8478 159.601 22.0495 160.529 24.8613H154.123C153.486 23.5349 152.584 22.5402 151.417 21.8771C150.277 21.2139 148.95 20.8823 147.438 20.8823C145.82 20.8823 144.375 21.2669 143.101 22.0362C141.855 22.7789 140.873 23.84 140.157 25.2194C139.467 26.5987 139.122 28.2168 139.122 30.0737C139.122 31.904 139.467 33.5221 140.157 34.928C140.873 36.3074 141.855 37.3817 143.101 38.1509C144.375 38.8937 145.82 39.2651 147.438 39.2651C148.95 39.2651 150.277 38.9335 151.417 38.2703C152.584 37.5806 153.486 36.5726 154.123 35.2463H160.529C159.601 38.0846 157.969 40.2996 155.635 41.8912C153.327 43.4562 150.608 44.2387 147.478 44.2387C144.825 44.2387 142.425 43.6419 140.276 42.4482C138.154 41.228 136.47 39.5436 135.223 37.3949C134.003 35.2463 133.393 32.8059 133.393 30.0737ZM175.075 44.3581C172.953 44.3581 171.043 43.8939 169.346 42.9655C167.648 42.0105 166.308 40.6709 165.327 38.9467C164.372 37.2225 163.894 35.2331 163.894 32.9783C163.894 30.7236 164.385 28.7341 165.367 27.0099C166.375 25.2857 167.741 23.9594 169.465 23.0309C171.189 22.076 173.112 21.5985 175.234 21.5985C177.356 21.5985 179.28 22.076 181.004 23.0309C182.728 23.9594 184.081 25.2857 185.062 27.0099C186.07 28.7341 186.574 30.7236 186.574 32.9783C186.574 35.2331 186.057 37.2225 185.023 38.9467C184.015 40.6709 182.635 42.0105 180.884 42.9655C179.16 43.8939 177.224 44.3581 175.075 44.3581ZM175.075 39.5038C176.083 39.5038 177.025 39.2651 177.9 38.7876C178.802 38.2836 179.518 37.5408 180.049 36.5594C180.579 35.5779 180.845 34.3842 180.845 32.9783C180.845 30.8827 180.288 29.2779 179.174 28.1638C178.086 27.0232 176.746 26.4528 175.155 26.4528C173.563 26.4528 172.224 27.0232 171.136 28.1638C170.075 29.2779 169.544 30.8827 169.544 32.9783C169.544 35.0739 170.062 36.692 171.096 37.8326C172.157 38.9467 173.484 39.5038 175.075 39.5038ZM196.231 25.3785C196.947 24.2114 197.876 23.2962 199.016 22.6331C200.184 21.9699 201.51 21.6383 202.995 21.6383V27.4874H201.523C199.772 27.4874 198.446 27.8985 197.544 28.7208C196.669 29.5432 196.231 30.9756 196.231 33.0181V44H190.661V21.9566H196.231V25.3785ZM212.318 25.1398C213.034 24.1318 214.016 23.2962 215.262 22.6331C216.536 21.9434 217.981 21.5985 219.599 21.5985C221.483 21.5985 223.18 22.0627 224.692 22.9912C226.231 23.9196 227.438 25.2459 228.313 26.9701C229.215 28.6678 229.666 30.644 229.666 32.8987C229.666 35.1535 229.215 37.1562 228.313 38.9069C227.438 40.6312 226.231 41.9707 224.692 42.9257C223.18 43.8806 221.483 44.3581 219.599 44.3581C217.981 44.3581 216.549 44.0265 215.302 43.3634C214.082 42.7002 213.087 41.8646 212.318 40.8566V54.5044H206.747V21.9566H212.318V25.1398ZM223.976 32.8987C223.976 31.5724 223.698 30.4318 223.141 29.4768C222.61 28.4954 221.894 27.7526 220.992 27.2486C220.117 26.7446 219.162 26.4926 218.127 26.4926C217.119 26.4926 216.164 26.7579 215.262 27.2884C214.387 27.7924 213.671 28.5352 213.114 29.5166C212.583 30.4981 212.318 31.652 212.318 32.9783C212.318 34.3046 212.583 35.4585 213.114 36.44C213.671 37.4215 214.387 38.1775 215.262 38.708C216.164 39.212 217.119 39.464 218.127 39.464C219.162 39.464 220.117 39.1987 220.992 38.6682C221.894 38.1377 222.61 37.3817 223.141 36.4002C223.698 35.4187 223.976 34.2516 223.976 32.8987ZM243.502 44.3581C241.38 44.3581 239.47 43.8939 237.773 42.9655C236.075 42.0105 234.735 40.6709 233.754 38.9467C232.799 37.2225 232.321 35.2331 232.321 32.9783C232.321 30.7236 232.812 28.7341 233.794 27.0099C234.802 25.2857 236.168 23.9594 237.892 23.0309C239.616 22.076 241.539 21.5985 243.661 21.5985C245.783 21.5985 247.707 22.076 249.431 23.0309C251.155 23.9594 252.508 25.2857 253.489 27.0099C254.497 28.7341 255.001 30.7236 255.001 32.9783C255.001 35.2331 254.484 37.2225 253.45 38.9467C252.442 40.6709 251.062 42.0105 249.311 42.9655C247.587 43.8939 245.651 44.3581 243.502 44.3581ZM243.502 39.5038C244.51 39.5038 245.452 39.2651 246.327 38.7876C247.229 38.2836 247.945 37.5408 248.476 36.5594C249.006 35.5779 249.272 34.3842 249.272 32.9783C249.272 30.8827 248.715 29.2779 247.601 28.1638C246.513 27.0232 245.173 26.4528 243.582 26.4528C241.99 26.4528 240.651 27.0232 239.563 28.1638C238.502 29.2779 237.971 30.8827 237.971 32.9783C237.971 35.0739 238.489 36.692 239.523 37.8326C240.584 38.9467 241.911 39.5038 243.502 39.5038ZM264.658 25.3785C265.374 24.2114 266.303 23.2962 267.443 22.6331C268.611 21.9699 269.937 21.6383 271.422 21.6383V27.4874H269.95C268.199 27.4874 266.873 27.8985 265.971 28.7208C265.096 29.5432 264.658 30.9756 264.658 33.0181V44H259.088V21.9566H264.658V25.3785ZM273.742 32.8987C273.742 30.6705 274.18 28.6943 275.055 26.9701C275.957 25.2459 277.164 23.9196 278.676 22.9912C280.214 22.0627 281.925 21.5985 283.809 21.5985C285.453 21.5985 286.886 21.9301 288.106 22.5933C289.353 23.2564 290.347 24.092 291.09 25.1V21.9566H296.7V44H291.09V40.7771C290.374 41.8116 289.379 42.6737 288.106 43.3634C286.859 44.0265 285.413 44.3581 283.769 44.3581C281.912 44.3581 280.214 43.8806 278.676 42.9257C277.164 41.9707 275.957 40.6312 275.055 38.9069C274.18 37.1562 273.742 35.1535 273.742 32.8987ZM291.09 32.9783C291.09 31.6255 290.825 30.4716 290.294 29.5166C289.764 28.5352 289.048 27.7924 288.146 27.2884C287.244 26.7579 286.276 26.4926 285.241 26.4926C284.207 26.4926 283.252 26.7446 282.376 27.2486C281.501 27.7526 280.785 28.4954 280.228 29.4768C279.697 30.4318 279.432 31.5724 279.432 32.8987C279.432 34.2251 279.697 35.3922 280.228 36.4002C280.785 37.3817 281.501 38.1377 282.376 38.6682C283.278 39.1987 284.233 39.464 285.241 39.464C286.276 39.464 287.244 39.212 288.146 38.708C289.048 38.1775 289.764 37.4347 290.294 36.4798C290.825 35.4983 291.09 34.3312 291.09 32.9783ZM308.627 26.5324V37.196C308.627 37.9387 308.799 38.4825 309.144 38.8274C309.515 39.1457 310.125 39.3048 310.974 39.3048H313.561V44H310.059C305.364 44 303.016 41.7187 303.016 37.1562V26.5324H300.39V21.9566H303.016V16.5055H308.627V21.9566H313.561V26.5324H308.627ZM338.059 32.5008C338.059 33.2966 338.006 34.0128 337.9 34.6495H321.785C321.918 36.2411 322.475 37.4878 323.456 38.3897C324.438 39.2916 325.644 39.7425 327.077 39.7425C329.146 39.7425 330.618 38.8539 331.494 37.0766H337.502C336.865 39.1987 335.645 40.9495 333.841 42.3288C332.037 43.6817 329.822 44.3581 327.196 44.3581C325.074 44.3581 323.164 43.8939 321.467 42.9655C319.795 42.0105 318.482 40.6709 317.527 38.9467C316.599 37.2225 316.135 35.2331 316.135 32.9783C316.135 30.6971 316.599 28.6943 317.527 26.9701C318.456 25.2459 319.756 23.9196 321.427 22.9912C323.098 22.0627 325.021 21.5985 327.196 21.5985C329.292 21.5985 331.162 22.0495 332.807 22.9514C334.478 23.8533 335.764 25.1398 336.666 26.8109C337.595 28.4556 338.059 30.3522 338.059 32.5008ZM332.289 30.9093C332.263 29.4768 331.746 28.3362 330.738 27.4874C329.73 26.612 328.496 26.1743 327.037 26.1743C325.658 26.1743 324.491 26.5987 323.536 27.4476C322.607 28.2699 322.037 29.4238 321.825 30.9093H332.289Z" fill="black"/>
<path d="M130.679 88.266H144.633V95H122.186V52.6547H130.679V88.266ZM147.847 78.074C147.847 74.6767 148.514 71.6636 149.849 69.0347C151.224 66.4058 153.064 64.3836 155.37 62.968C157.715 61.5524 160.324 60.8447 163.196 60.8447C165.703 60.8447 167.887 61.3502 169.748 62.3613C171.649 63.3724 173.165 64.6464 174.298 66.1833V61.3907H182.852V95H174.298V90.086C173.206 91.6633 171.689 92.9778 169.748 94.0293C167.847 95.0404 165.643 95.546 163.135 95.546C160.304 95.546 157.715 94.818 155.37 93.362C153.064 91.906 151.224 89.8636 149.849 87.2347C148.514 84.5653 147.847 81.5118 147.847 78.074ZM174.298 78.1953C174.298 76.1327 173.893 74.3733 173.084 72.9173C172.275 71.4209 171.183 70.2884 169.808 69.52C168.433 68.7111 166.957 68.3067 165.38 68.3067C163.802 68.3067 162.346 68.6909 161.012 69.4593C159.677 70.2278 158.585 71.3602 157.736 72.8567C156.927 74.3127 156.522 76.0518 156.522 78.074C156.522 80.0962 156.927 81.8758 157.736 83.4127C158.585 84.9091 159.677 86.0618 161.012 86.8707C162.387 87.6796 163.843 88.084 165.38 88.084C166.957 88.084 168.433 87.6998 169.808 86.9313C171.183 86.1224 172.275 84.99 173.084 83.534C173.893 82.0376 174.298 80.258 174.298 78.1953ZM188.963 78.074C188.963 74.6767 189.63 71.6636 190.965 69.0347C192.34 66.4058 194.2 64.3836 196.546 62.968C198.892 61.5524 201.501 60.8447 204.372 60.8447C206.556 60.8447 208.639 61.33 210.621 62.3007C212.603 63.2309 214.18 64.4847 215.353 66.062V50.1067H223.968V95H215.353V90.0253C214.301 91.6836 212.825 93.0182 210.924 94.0293C209.023 95.0404 206.819 95.546 204.312 95.546C201.48 95.546 198.892 94.818 196.546 93.362C194.2 91.906 192.34 89.8636 190.965 87.2347C189.63 84.5653 188.963 81.5118 188.963 78.074ZM215.414 78.1953C215.414 76.1327 215.009 74.3733 214.2 72.9173C213.391 71.4209 212.299 70.2884 210.924 69.52C209.549 68.7111 208.073 68.3067 206.496 68.3067C204.918 68.3067 203.462 68.6909 202.128 69.4593C200.793 70.2278 199.701 71.3602 198.852 72.8567C198.043 74.3127 197.638 76.0518 197.638 78.074C197.638 80.0962 198.043 81.8758 198.852 83.4127C199.701 84.9091 200.793 86.0618 202.128 86.8707C203.503 87.6796 204.959 88.084 206.496 88.084C208.073 88.084 209.549 87.6998 210.924 86.9313C212.299 86.1224 213.391 84.99 214.2 83.534C215.009 82.0376 215.414 80.258 215.414 78.1953ZM230.079 78.074C230.079 74.6767 230.746 71.6636 232.081 69.0347C233.456 66.4058 235.316 64.3836 237.662 62.968C240.008 61.5524 242.617 60.8447 245.488 60.8447C247.672 60.8447 249.755 61.33 251.737 62.3007C253.719 63.2309 255.296 64.4847 256.469 66.062V50.1067H265.083V95H256.469V90.0253C255.417 91.6836 253.941 93.0182 252.04 94.0293C250.139 95.0404 247.935 95.546 245.427 95.546C242.596 95.546 240.008 94.818 237.662 93.362C235.316 91.906 233.456 89.8636 232.081 87.2347C230.746 84.5653 230.079 81.5118 230.079 78.074ZM256.529 78.1953C256.529 76.1327 256.125 74.3733 255.316 72.9173C254.507 71.4209 253.415 70.2884 252.04 69.52C250.665 68.7111 249.189 68.3067 247.611 68.3067C246.034 68.3067 244.578 68.6909 243.243 69.4593C241.909 70.2278 240.817 71.3602 239.967 72.8567C239.159 74.3127 238.754 76.0518 238.754 78.074C238.754 80.0962 239.159 81.8758 239.967 83.4127C240.817 84.9091 241.909 86.0618 243.243 86.8707C244.619 87.6796 246.075 88.084 247.611 88.084C249.189 88.084 250.665 87.6998 252.04 86.9313C253.415 86.1224 254.507 84.99 255.316 83.534C256.125 82.0376 256.529 80.258 256.529 78.1953ZM304.622 77.4673C304.622 78.6807 304.541 79.7727 304.379 80.7433H279.809C280.012 83.17 280.861 85.0709 282.357 86.446C283.854 87.8211 285.694 88.5087 287.878 88.5087C291.033 88.5087 293.277 87.1538 294.612 84.444H303.773C302.802 87.6796 300.942 90.3489 298.191 92.452C295.441 94.5147 292.064 95.546 288.06 95.546C284.824 95.546 281.912 94.8382 279.324 93.4227C276.776 91.9667 274.774 89.9242 273.318 87.2953C271.902 84.6664 271.195 81.6331 271.195 78.1953C271.195 74.7171 271.902 71.6636 273.318 69.0347C274.734 66.4058 276.715 64.3836 279.263 62.968C281.811 61.5524 284.744 60.8447 288.06 60.8447C291.255 60.8447 294.106 61.5322 296.614 62.9073C299.162 64.2824 301.124 66.244 302.499 68.792C303.914 71.2996 304.622 74.1913 304.622 77.4673ZM295.825 75.0407C295.785 72.8567 294.996 71.1176 293.459 69.8233C291.922 68.4887 290.042 67.8213 287.817 67.8213C285.714 67.8213 283.935 68.4684 282.479 69.7627C281.063 71.0164 280.194 72.7758 279.87 75.0407H295.825ZM319.315 66.608C320.407 64.8284 321.822 63.4331 323.561 62.422C325.341 61.4109 327.363 60.9053 329.628 60.9053V69.8233H327.383C324.714 69.8233 322.692 70.4502 321.317 71.704C319.982 72.9578 319.315 75.1418 319.315 78.256V95H310.821V61.3907H319.315V66.608Z" fill="#00A2FF"/>
<rect x="27" y="99" width="63" height="6" fill="url(#paint0_linear_18_324)"/>
<defs>
<linearGradient id="paint0_linear_18_324" x1="66" y1="103" x2="66" y2="99.5" gradientUnits="userSpaceOnUse">
<stop/>
<stop offset="1" stop-opacity="0"/>
</linearGradient>
</defs>
</svg>
