<svg width="80" height="78" viewBox="0 0 80 78" fill="none" xmlns="http://www.w3.org/2000/svg">
<path d="M13.641 10.16C13.1723 9.51939 13.3012 8.60921 13.9496 8.14051C14.5902 7.66004 15.5004 7.80067 15.9691 8.44129L19.5394 13.2616L21.7894 11.0116C22.098 10.7108 22.5199 10.5506 22.9496 10.5897C23.3793 10.6288 23.7699 10.871 24.0082 11.2186L29.3676 19.1483C29.8168 19.8085 29.6371 20.7069 28.977 21.16C28.727 21.3319 28.4457 21.41 28.1684 21.41C27.7074 21.41 27.2465 21.1795 26.9692 20.7694L22.5981 14.3006L20.3989 16.4998C20.0981 16.8006 19.6801 16.9607 19.2583 16.9217C18.8364 16.8904 18.4575 16.6834 18.2075 16.3436L13.641 10.16ZM37.571 10.9686H40.6726L39.1843 18.617C39.0359 19.3982 39.5437 20.1561 40.3249 20.3084C40.4265 20.3279 40.5163 20.3396 40.6062 20.3396C41.2858 20.3396 41.8952 19.8592 42.028 19.1677L43.8562 9.79665C43.946 9.36696 43.8249 8.93727 43.5554 8.59745C43.2741 8.26933 42.864 8.0662 42.4343 8.0662H39.2429L40.1218 2.1053C40.2429 1.31624 39.6921 0.574098 38.903 0.464698C38.1139 0.343608 37.3718 0.894387 37.2624 1.6835L36.1413 9.3046C36.071 9.72647 36.1999 10.1444 36.4694 10.4648C36.7506 10.789 37.153 10.9686 37.571 10.9686ZM50.993 21.1566C51.243 21.3285 51.5243 21.4066 51.8016 21.4066C52.2703 21.4066 52.7235 21.1761 53.0008 20.766L57.3797 14.2972L59.5789 16.4964C59.8679 16.7972 60.2781 16.9456 60.7078 16.9183C61.1297 16.887 61.5086 16.68 61.7586 16.3401L66.3484 10.1682C66.8289 9.5198 66.7 8.61744 66.0593 8.13704C65.4109 7.65657 64.5085 7.7972 64.0281 8.43782L60.4383 13.2659L58.1766 11.0042C57.8758 10.7034 57.4462 10.5433 57.0164 10.5823C56.5867 10.6214 56.1961 10.8636 55.9578 11.2112L50.5984 19.1409C50.1609 19.8089 50.3329 20.7074 50.993 21.1566ZM14.813 29.3597C15.0943 29.3597 15.3716 29.2816 15.6216 29.1097C16.2818 28.6605 16.4614 27.7581 16.0122 27.098L10.6528 19.1683C10.4145 18.8167 10.0239 18.5902 9.59421 18.5394C9.16452 18.5081 8.74265 18.6605 8.43401 18.9613L6.18401 21.223L2.61371 16.3949C2.14496 15.7542 1.23481 15.6136 0.594211 16.0941C-0.0542287 16.5628 -0.187039 17.473 0.285621 18.1136L4.85592 24.2933C5.10592 24.6331 5.48483 24.8441 5.90672 24.8714C6.33641 24.9105 6.74656 24.7503 7.04732 24.4495L9.24652 22.2503L13.6176 28.7191C13.8911 29.1293 14.3521 29.3597 14.813 29.3597ZM79.422 16.0897C78.7736 15.6092 77.8712 15.7499 77.3908 16.3905L73.801 21.2108L71.5705 18.9725C71.2697 18.6639 70.84 18.5037 70.4103 18.5428C69.9806 18.5819 69.59 18.824 69.3517 19.1717L63.9923 27.1014C63.5431 27.7616 63.7228 28.66 64.3829 29.1131C64.6329 29.285 64.9142 29.3631 65.1915 29.3631C65.6525 29.3631 66.1134 29.1326 66.3907 28.7225L70.7618 22.2616L72.9337 24.453C73.2345 24.7538 73.6525 24.9022 74.0626 24.8749C74.4845 24.8436 74.8712 24.6366 75.1212 24.2967L79.711 18.1248C80.1915 17.4764 80.0587 16.5663 79.422 16.0897ZM68.719 49.1287C68.3088 49.6482 68.3088 50.3787 68.719 50.8982C69.3792 51.7576 69.7307 52.7771 69.7307 53.867C69.7307 56.1482 68.1291 58.0584 65.9416 58.5779C65.1213 55.0779 62.7932 52.117 59.5002 50.4881C58.7814 50.1365 57.9104 50.4295 57.5588 51.1483C57.1994 51.8592 57.4885 52.7264 58.2072 53.0897C61.0588 54.4999 62.9689 57.2108 63.3088 60.3397C63.3088 60.3397 63.3206 60.3397 63.3206 60.3514V60.3709C63.3596 60.7108 63.3909 61.0818 63.3909 61.4295C63.3909 66.5701 59.2112 70.7498 54.0706 70.7498C53.6292 70.7498 53.1995 70.7303 52.7894 70.6795C52.3284 70.6209 51.8792 70.7889 51.5706 71.1209C51.2503 71.4607 51.1214 71.9217 51.1995 72.3826L52.1409 77.5545H48.6292C47.6292 73.285 44.9183 69.9529 40.5394 67.6443C38.7503 66.6951 36.8206 66.1248 34.9378 65.574C30.5784 64.2928 27.137 63.2849 26.3167 58.3357C26.2386 57.8552 26.1956 57.4255 26.1956 57.0154C26.1956 54.9959 26.9573 53.0662 28.3245 51.574C28.8753 50.9842 28.8362 50.0623 28.2464 49.5232C27.6565 48.9841 26.7347 49.0232 26.1956 49.613C24.3245 51.6442 23.305 54.2733 23.305 57.0115C23.305 57.2615 23.3167 57.5115 23.3362 57.7615C22.1057 58.3904 20.7268 58.7302 19.2854 58.7302C14.3166 58.7302 10.2659 54.6794 10.2659 49.7107C10.2659 48.1716 10.6644 46.6599 11.4065 45.3318C12.4456 47.9802 14.5862 50.113 17.3753 51.1013C17.5355 51.1599 17.7034 51.1911 17.8636 51.1911C18.4534 51.1911 19.012 50.8201 19.223 50.2302C19.4925 49.4685 19.1019 48.6404 18.3441 48.3786C15.6058 47.3981 13.7347 44.8903 13.6058 41.9802V41.6794C13.6058 37.8083 16.6253 34.6911 20.4769 34.57C20.9574 34.5583 21.3988 34.3083 21.6566 33.8982C22.6175 32.3865 24.2464 31.488 26.0355 31.488C26.6136 31.488 27.1449 31.5583 27.6058 31.6989C28.266 31.8981 28.9847 31.5973 29.305 30.988C30.305 29.1091 32.2659 27.9372 34.4261 27.9372C35.7464 27.9372 36.9847 28.3668 37.9964 29.1755C38.5745 29.6364 39.4183 29.5856 39.9378 29.0544C40.9573 28.0153 42.2972 27.4333 43.719 27.4333C44.469 27.4333 45.1878 27.6051 45.8596 27.902C44.1994 29.4215 43.219 31.5622 43.219 33.8825C43.219 34.6833 43.8674 35.3317 44.6682 35.3317C45.469 35.3317 46.1174 34.6833 46.1174 33.8825C46.1174 31.8942 47.2385 30.1013 49.0393 29.2028C49.7698 28.863 50.5393 28.6911 51.3088 28.6911C53.6291 28.6911 55.6682 30.2419 56.2776 32.4606C56.4768 33.1989 57.2268 33.6598 57.969 33.4997C58.4885 33.3903 58.9104 33.3395 59.2893 33.3395C62.1409 33.3395 64.4495 35.6676 64.4495 38.5309C64.4495 38.9606 64.4182 39.2497 64.3596 39.5192C64.2581 39.9098 64.3284 40.3278 64.5589 40.6676C64.7893 41.0075 65.137 41.2379 65.5471 41.2965C67.969 41.6676 69.7269 43.7067 69.7269 46.1481C69.7308 47.2379 69.3791 48.2693 68.719 49.1287ZM55.762 43.8396C55.1917 43.281 54.2737 43.2888 53.7229 43.8708C49.9729 47.7224 46.7112 49.4606 44.0432 49.0192C41.6135 48.6286 39.383 46.3708 37.4221 42.3083C37.0823 41.5896 36.2112 41.2771 35.4924 41.6287C34.7737 41.9802 34.4729 42.8396 34.8205 43.5701C36.6994 47.4607 38.9221 49.9998 41.4494 51.1912C43.6799 53.0428 43.6213 55.4607 43.4806 56.4295C43.3712 57.2185 43.9298 57.949 44.7189 58.0584C44.7892 58.0701 44.8478 58.0701 44.9181 58.0701C45.6291 58.0701 46.2462 57.5505 46.3478 56.8201C46.5861 55.1092 46.2971 53.4295 45.5861 51.9412C48.7267 51.6795 52.0861 49.7029 55.7851 45.8904C56.3515 45.3083 56.3401 44.3865 55.762 43.8396Z" fill="black"/>
</svg>
